HIERARCHY
ROOT Hips
{
	OFFSET 0.000000 0.000000 0.000000
	CHANNELS 6 Xposition Yposition Zposition Zrotation Yrotation Xrotation 
	JOINT LeftUpLeg_virtual
	{
		OFFSET 0.000000 0.000000 0.000000
		CHANNELS 3 Zrotation Yrotation Xrotation
		JOINT LeftUpLeg
		{
			OFFSET 8.479694 -4.795517 -0.379053
			CHANNELS 3 Zrotation Yrotation Xrotation
			JOINT LeftLeg
			{
				OFFSET 0.485052 -32.551468 0.112863
				CHANNELS 3 Zrotation Yrotation Xrotation
				JOINT LeftFoot
				{
					OFFSET 0.438033 -32.635670 -3.012641
					CHANNELS 3 Zrotation Yrotation Xrotation
					JOINT LeftToeBase
					{
						OFFSET 0.970169 -13.225353 11.864223
						CHANNELS 3 Zrotation Yrotation Xrotation
						End Site
						{
							OFFSET 0.000000 0.000000 0.000000
						}
					}
				}
			}
		}
	}
	JOINT RightUpLeg_virtual
	{
		OFFSET 0.000000 0.000000 0.000000
		CHANNELS 3 Zrotation Yrotation Xrotation
		JOINT RightUpLeg
		{
			OFFSET -8.479694 -4.795517 -0.379053
			CHANNELS 3 Zrotation Yrotation Xrotation
			JOINT RightLeg
			{
				OFFSET -0.484100 -32.551483 0.112903
				CHANNELS 3 Zrotation Yrotation Xrotation
				JOINT RightFoot
				{
					OFFSET -0.438985 -32.635651 -3.012681
					CHANNELS 3 Zrotation Yrotation Xrotation
					JOINT RightToeBase
					{
						OFFSET -0.970169 -13.225354 11.864223
						CHANNELS 3 Zrotation Yrotation Xrotation
						End Site
						{
							OFFSET 0.000000 0.000000 0.000000
						}
					}
				}
			}
		}
	}
	JOINT Spine_virtual
	{
		OFFSET 0.000000 0.000000 0.000000
		CHANNELS 3 Zrotation Yrotation Xrotation
		JOINT Spine
		{
			OFFSET 0.000000 7.722015 1.166203
			CHANNELS 3 Zrotation Yrotation Xrotation
			JOINT Spine1
			{
				OFFSET 0.000000 12.024086 0.248766
				CHANNELS 3 Zrotation Yrotation Xrotation
				JOINT Spine2
				{
					OFFSET -0.000000 11.503036 -0.491240
					CHANNELS 3 Zrotation Yrotation Xrotation
					JOINT Neck_virtual
					{
						OFFSET 0.000000 0.000000 0.000000
						CHANNELS 3 Zrotation Yrotation Xrotation
						JOINT Neck
						{
							OFFSET 0.000000 18.430687 -3.123054
							CHANNELS 3 Zrotation Yrotation Xrotation
							JOINT Head
							{
								OFFSET -0.000000 9.051071 1.034021
								CHANNELS 3 Zrotation Yrotation Xrotation
								End Site
								{
									OFFSET 0.000000 0.000000 0.000000
								}
							}
						}
					}
					JOINT LeftShoulder_virtual
					{
						OFFSET 0.000000 0.000000 0.000000
						CHANNELS 3 Zrotation Yrotation Xrotation
						JOINT LeftShoulder
						{
							OFFSET 6.197824 13.665230 -4.064723
							CHANNELS 3 Zrotation Yrotation Xrotation
							JOINT LeftArm
							{
								OFFSET 7.778132 -0.187073 -1.709282
								CHANNELS 3 Zrotation Yrotation Xrotation
								JOINT LeftForeArm
								{
									OFFSET 21.954697 0.000000 -2.041093
									CHANNELS 3 Zrotation Yrotation Xrotation
									JOINT LeftHand
									{
										OFFSET 22.992908 0.000000 -0.870901
										CHANNELS 3 Zrotation Yrotation Xrotation
										End Site
										{
											OFFSET 0.000000 0.000000 0.000000
										}
									}
								}
							}
						}
					}
					JOINT RightShoulder_virtual
					{
						OFFSET 0.000000 0.000000 0.000000
						CHANNELS 3 Zrotation Yrotation Xrotation
						JOINT RightShoulder
						{
							OFFSET -6.197824 13.665230 -4.064723
							CHANNELS 3 Zrotation Yrotation Xrotation
							JOINT RightArm
							{
								OFFSET -7.778132 -0.187073 -1.709282
								CHANNELS 3 Zrotation Yrotation Xrotation
								JOINT RightForeArm
								{
									OFFSET -21.954697 0.000000 -2.041093
									CHANNELS 3 Zrotation Yrotation Xrotation
									JOINT RightHand
									{
										OFFSET -22.992908 0.000000 -0.870901
										CHANNELS 3 Zrotation Yrotation Xrotation
										End Site
										{
											OFFSET 0.000000 0.000000 0.000000
										}
									}
								}
							}
						}
					}
				}
			}
		}
	}
}
MOTION
Frames: 13
Frame Time: 0.033333
7.039650 80.092728 51.038002 179.293873 2.986572 -179.739406 -1.450793 -2.647675 5.934155 9.224671 4.811027 -24.958512 9.969419 6.184223 39.488520 -1.297147 2.202040 -0.878310 0.000000 0.000000 0.000000 3.138051 -4.877731 5.247441 3.638709 1.385117 -27.782838 1.119984 1.237396 43.903117 2.133418 6.839437 -12.685983 0.000000 0.000000 0.000000 3.509162 -0.472686 -6.890001 1.649139 1.237598 -2.277441 -0.241486 -1.156869 10.279274 0.042663 0.131324 0.051264 -0.328868 -0.000282 10.373369 -1.825974 -1.086729 2.182878 0.000000 0.000000 0.000000 1.355095 0.426663 7.153717 -5.924559 -0.493457 0.870873 -50.896685 -1.042592 4.955952 -7.037683 -51.122552 15.315425 0.000000 0.000000 0.000000 -3.228519 2.239341 6.135667 18.051077 -3.142669 -3.395056 44.014518 12.735789 -13.012838 -164.352465 73.139831 -172.326629 0.000000 0.000000 0.000000 
7.471427 80.398941 51.183933 179.291851 2.405786 -179.690898 -1.788874 -2.789505 6.077051 8.926084 4.689044 -25.687259 9.649708 6.382154 38.626461 -1.033238 2.314788 -0.284181 0.000000 0.000000 0.000000 3.259093 -4.676571 5.603662 3.800002 1.657401 -27.506779 1.095529 1.268671 42.648726 2.202565 6.170256 -12.208384 0.000000 0.000000 0.000000 3.486926 -0.500893 -6.627984 1.711371 1.371127 -2.032779 -0.184909 -1.008408 10.288099 0.055191 0.251801 0.114869 -0.332040 0.080029 10.283256 -1.719734 -1.399559 1.875930 0.000000 0.000000 0.000000 1.339730 0.508051 7.023005 -6.136337 -0.722136 0.949796 -52.108196 -0.712877 6.068777 -6.252291 -48.249669 14.431160 0.000000 0.000000 0.000000 -3.216030 2.269837 6.152735 19.185115 -3.098396 -3.612511 45.257633 14.973206 -14.140539 -162.542410 72.592842 -170.689952 0.000000 0.000000 0.000000 
7.754463 80.697929 51.310425 179.208427 1.735999 -179.597775 -2.018765 -2.936111 6.360439 8.600117 4.514732 -26.546420 9.282049 6.424041 37.895351 -0.823993 2.109144 0.042993 0.000000 0.000000 0.000000 3.380064 -4.442735 6.008098 3.877730 1.814839 -27.280684 1.071323 1.316156 41.171103 2.373311 5.576192 -11.776021 0.000000 0.000000 0.000000 3.507538 -0.317498 -6.384480 1.680094 1.432165 -1.821947 -0.275433 -0.966123 10.295853 0.058279 0.280567 0.078342 -0.209104 0.850776 10.377688 -1.609787 -1.520894 1.599434 0.000000 0.000000 0.000000 1.442658 0.594795 7.047877 -6.336875 -0.921764 0.910902 -53.527537 -0.270246 7.007938 -5.467030 -45.316003 13.605209 0.000000 0.000000 0.000000 -3.118047 2.251258 6.220216 19.880838 -2.994828 -3.587971 46.705404 17.193331 -14.500111 -161.261804 72.194539 -169.570538 0.000000 0.000000 0.000000 
7.925674 80.965965 51.459225 179.049461 1.150070 -179.512097 -2.252837 -3.015095 6.733155 8.032150 4.260563 -27.569720 8.596817 6.282726 37.085591 -1.042500 1.229758 -0.223992 0.000000 0.000000 0.000000 3.444136 -4.187466 6.415276 3.853542 1.876939 -27.098690 1.047292 1.411193 39.570011 2.587129 5.039875 -11.319445 0.000000 0.000000 0.000000 3.444230 -0.325370 -6.185091 1.659668 1.708255 -1.667312 -0.261062 -0.864721 10.295013 0.091854 0.257977 0.067098 -0.241909 0.461696 10.461180 -1.665967 -1.701827 1.345931 0.000000 0.000000 0.000000 1.349785 0.741378 7.064076 -6.454391 -1.093246 0.969852 -54.865813 0.422682 8.145538 -4.666393 -43.016791 12.742195 0.000000 0.000000 0.000000 -3.084085 2.444376 6.350204 20.513220 -2.728295 -3.380145 47.539230 18.755629 -14.118033 -160.510962 71.624786 -168.853150 0.000000 0.000000 0.000000 
8.033536 81.190849 51.596710 178.893924 0.640847 -179.443959 -2.321922 -2.494046 7.326201 7.402723 4.098430 -28.580778 7.376100 5.782794 36.181083 -2.541977 -1.222702 -2.596466 0.000000 0.000000 0.000000 3.491207 -3.973592 6.800346 3.775143 1.929677 -26.951124 1.032740 1.529470 38.074633 2.751672 4.554739 -10.849258 0.000000 0.000000 0.000000 3.425152 -0.217786 -5.963764 1.672304 1.954349 -1.517237 -0.233838 -0.701262 10.309260 0.089477 0.421076 0.107956 -0.212639 0.340588 10.448118 -1.542582 -1.809947 1.156923 0.000000 0.000000 0.000000 1.289874 0.743152 6.987225 -6.422692 -1.203483 0.977342 -56.144442 1.338703 9.338358 -4.197827 -41.312246 12.345486 0.000000 0.000000 0.000000 -3.049820 2.581188 6.269890 20.707716 -2.409022 -2.881303 48.448680 19.778208 -12.483379 -159.935655 71.302011 -168.224800 0.000000 0.000000 0.000000 
8.091232 81.305832 51.700024 178.862806 -0.354891 -179.476252 -2.406812 -2.125208 7.740758 6.784462 3.861920 -29.548430 6.779301 5.652594 35.665240 -3.379246 -3.113113 -4.047268 0.000000 0.000000 0.000000 3.529555 -4.002880 7.143258 3.727162 1.912122 -26.800059 1.059448 1.580071 36.891996 2.837830 4.143175 -10.529821 0.000000 0.000000 0.000000 3.343738 -0.244124 -5.759486 1.744060 2.062969 -1.397183 -0.003523 -0.645440 10.289710 0.092204 0.562027 0.054967 -0.264936 0.256285 10.537230 -0.959439 -2.279270 0.972228 0.000000 0.000000 0.000000 1.327443 0.759196 7.049861 -6.476797 -1.140887 1.000316 -57.136885 2.388301 10.552456 -4.347411 -40.339879 12.645919 0.000000 0.000000 0.000000 -3.052302 2.466163 6.255112 20.488824 -2.066863 -2.836565 49.224518 20.082189 -9.703116 -160.373443 71.637319 -168.518184 0.000000 0.000000 0.000000 
8.132660 81.358292 51.759789 178.845498 -1.624021 -179.530566 -2.543653 -2.186924 8.055726 6.094772 3.778864 -30.292828 6.737600 5.866612 34.927030 -3.042682 -3.825185 -3.882953 0.000000 0.000000 0.000000 3.524962 -4.071871 7.386869 3.691916 1.780539 -26.666337 1.110654 1.618668 36.032332 2.867871 3.857941 -10.382648 0.000000 0.000000 0.000000 3.354192 -0.268626 -5.589739 1.841036 2.146605 -1.263869 0.009292 -0.709911 10.267542 0.041263 0.477948 0.072560 -0.040732 0.336699 10.519075 -0.887391 -2.178332 0.831056 0.000000 0.000000 0.000000 1.518295 0.797633 6.949708 -6.488740 -0.896668 0.965413 -58.217254 3.441070 11.520157 -3.985971 -39.524327 12.538016 0.000000 0.000000 0.000000 -2.811088 2.503209 6.288987 20.282995 -1.549674 -2.532377 49.657763 20.032168 -6.518671 -160.924571 71.816584 -168.892109 0.000000 0.000000 0.000000 
8.127340 81.384628 51.750648 178.818259 -2.487925 -179.571124 -2.681658 -2.083899 8.334884 5.582137 3.673831 -30.812609 6.512275 6.243034 33.837529 -2.891419 -4.288531 -3.791552 0.000000 0.000000 0.000000 3.516641 -4.211410 7.533892 3.634092 1.610523 -26.536675 1.177037 1.691596 35.492525 2.877970 3.713748 -10.356169 0.000000 0.000000 0.000000 3.271467 -0.283490 -5.435479 1.963495 2.353528 -1.116030 0.204461 -0.704598 10.209139 -0.002801 0.432802 0.073353 0.026326 0.116025 10.499729 -0.612868 -2.209724 0.671057 0.000000 0.000000 0.000000 1.621963 1.015260 6.883031 -6.579516 -0.716579 0.975424 -58.976102 4.243327 12.405472 -3.784045 -39.159763 12.672248 0.000000 0.000000 0.000000 -2.684896 2.677114 6.214508 19.963241 -1.194666 -2.371027 49.815998 19.562357 -3.771245 -162.264613 72.276140 -170.021263 0.000000 0.000000 0.000000 
8.029667 81.407333 51.704872 178.818601 -4.210792 -179.595712 -2.744681 -2.551640 8.416639 4.987331 3.259247 -31.140578 6.579926 6.275165 32.662972 -2.828650 -4.875991 -3.464769 0.000000 0.000000 0.000000 3.468685 -4.684191 7.613746 3.569774 1.240585 -26.362785 1.230034 1.687701 35.092423 2.845317 3.618701 -10.439175 0.000000 0.000000 0.000000 3.440635 -0.689966 -5.361730 1.900746 2.313663 -0.965402 0.232445 -0.787165 10.106345 0.057269 0.387951 0.015220 0.214496 0.733067 10.519998 -0.483834 -2.149835 0.527718 0.000000 0.000000 0.000000 1.693552 0.892387 6.868990 -6.796545 -0.388647 0.849190 -59.621404 4.668526 12.741456 -3.567016 -38.700330 12.800353 0.000000 0.000000 0.000000 -2.574385 2.588665 6.328975 19.710654 -0.891273 -2.095315 49.865831 19.032764 -1.304651 -162.776877 72.706612 -170.379014 0.000000 0.000000 0.000000 
7.842483 81.450592 51.650383 178.807058 -4.759177 -179.606654 -2.774602 -2.673268 8.608775 4.570223 3.158536 -31.318033 6.499664 6.861873 31.387766 -2.666520 -5.279909 -3.355633 0.000000 0.000000 0.000000 3.428969 -4.921239 7.653709 3.480058 0.875006 -26.184275 1.262540 1.717903 34.792690 2.856904 3.628103 -10.462162 0.000000 0.000000 0.000000 3.593780 -0.804136 -5.270136 1.854165 2.646491 -0.770916 0.312758 -0.608232 10.058678 0.113784 0.505493 0.027884 0.332527 0.615055 10.367245 -0.283865 -2.083507 0.342730 0.000000 0.000000 0.000000 1.768097 0.822479 6.772153 -7.057110 -0.236283 0.787701 -60.070312 4.745307 12.962383 -3.626424 -38.438805 13.178848 0.000000 0.000000 0.000000 -2.428841 2.564967 6.222526 19.524722 -0.716058 -1.744190 49.739032 18.312683 0.612396 -163.118264 73.015071 -170.593769 0.000000 0.000000 0.000000 
7.554287 81.495277 51.596138 178.828669 -5.973427 -179.645245 -2.949506 -2.503036 8.695097 4.082647 2.852491 -31.719487 6.478109 6.516596 30.342863 -2.558023 -5.670925 -3.156922 0.000000 0.000000 0.000000 3.348081 -5.260258 7.743111 3.403345 0.410475 -25.997310 1.253240 1.631929 34.480960 2.814210 3.564786 -10.506148 0.000000 0.000000 0.000000 3.810148 -1.190797 -5.064734 1.762716 2.572087 -0.611257 0.336738 -0.689680 9.928208 0.056099 0.482438 -0.027688 0.447853 0.571544 10.272553 -0.027173 -2.103260 0.184277 0.000000 0.000000 0.000000 1.881768 0.894748 6.701779 -7.313633 0.155625 0.657953 -60.563547 4.753916 12.993960 -3.408290 -38.364961 13.274257 0.000000 0.000000 0.000000 -2.306884 2.572999 6.194464 19.325687 -0.546255 -1.622232 49.853862 17.542219 2.327709 -164.011926 73.392855 -171.449141 0.000000 0.000000 0.000000 
7.160959 81.518997 51.553249 178.841933 -6.495585 -179.673904 -2.965141 -2.188500 8.863795 3.589271 2.557121 -32.126881 6.513750 6.788278 29.559112 -2.429109 -6.048285 -3.175534 0.000000 0.000000 0.000000 3.216958 -5.281145 7.848762 3.341766 -0.019076 -25.833116 1.209103 1.536529 34.251780 2.796745 3.502695 -10.514558 0.000000 0.000000 0.000000 3.932355 -1.273799 -4.773389 1.677355 2.697519 -0.479121 0.415159 -0.596907 9.805345 0.064130 0.585852 -0.033578 0.455794 0.616336 10.200120 0.110704 -1.981457 0.092822 0.000000 0.000000 0.000000 1.887504 0.815313 6.646783 -7.491346 0.401194 0.546814 -60.761575 4.700012 13.146979 -3.328921 -38.653683 13.467887 0.000000 0.000000 0.000000 -2.319653 2.438582 6.087007 19.115632 -0.519381 -1.503360 50.247916 16.858741 3.690336 -165.131831 73.631481 -172.569633 0.000000 0.000000 0.000000 
6.694260 81.512306 51.506760 178.874554 -6.741745 -179.709039 -2.844654 -2.268962 9.222407 2.979666 2.621762 -32.696519 6.429798 7.084202 28.998712 -2.200170 -6.319785 -3.403932 0.000000 0.000000 0.000000 3.042911 -5.093435 7.974989 3.288153 -0.405656 -25.676278 1.138994 1.426946 34.136698 2.823398 3.463388 -10.523857 0.000000 0.000000 0.000000 3.923524 -0.758957 -4.372693 1.570603 2.808606 -0.431894 0.464473 -0.478893 9.646586 0.079960 0.536282 0.036274 0.532215 0.306038 10.031265 0.345475 -1.956164 0.036854 0.000000 0.000000 0.000000 1.909995 0.651754 6.566684 -7.496874 0.656492 0.324158 -60.849602 4.602519 13.427235 -3.360022 -39.247387 13.697854 0.000000 0.000000 0.000000 -2.217138 2.330173 5.863676 19.075231 -0.626299 -1.187317 50.526533 16.387779 4.579418 -165.522299 73.390383 -173.026901 0.000000 0.000000 0.000000 
